<svg width="26" height="26" viewBox="0 0 26 26" fill="none" xmlns="http://www.w3.org/2000/svg">
<path d="M21.3643 7.11023C21.5107 7.25671 21.5938 7.45447 21.5938 7.66199V22.7181C21.5938 23.1503 21.2446 23.4994 20.8125 23.4994H5.1875C4.75537 23.4994 4.40625 23.1503 4.40625 22.7181V2.40564C4.40625 1.97351 4.75537 1.62439 5.1875 1.62439H15.5562C15.7637 1.62439 15.9639 1.7074 16.1104 1.85388L21.3643 7.11023ZM19.792 8.02087L15.1973 3.42615V8.02087H19.792ZM8.3125 11.8295C8.2607 11.8295 8.21102 11.85 8.17439 11.8867C8.13776 11.9233 8.11719 11.973 8.11719 12.0248V13.1967C8.11719 13.2485 8.13776 13.2981 8.17439 13.3348C8.21102 13.3714 8.2607 13.392 8.3125 13.392H17.6875C17.7393 13.392 17.789 13.3714 17.8256 13.3348C17.8622 13.2981 17.8828 13.2485 17.8828 13.1967V12.0248C17.8828 11.973 17.8622 11.9233 17.8256 11.8867C17.789 11.85 17.7393 11.8295 17.6875 11.8295H8.3125ZM8.3125 15.1498C8.2607 15.1498 8.21102 15.1704 8.17439 15.207C8.13776 15.2436 8.11719 15.2933 8.11719 15.3451V16.517C8.11719 16.5688 8.13776 16.6184 8.17439 16.6551C8.21102 16.6917 8.2607 16.7123 8.3125 16.7123H12.8047C12.8565 16.7123 12.9062 16.6917 12.9428 16.6551C12.9794 16.6184 13 16.5688 13 16.517V15.3451C13 15.2933 12.9794 15.2436 12.9428 15.207C12.9062 15.1704 12.8565 15.1498 12.8047 15.1498H8.3125Z" fill="#D6A218"/>
</svg>
