<svg width="24" height="24" viewBox="0 0 24 24" fill="none" xmlns="http://www.w3.org/2000/svg">
<path d="M18.4687 16.5445V4.49997C18.4687 4.29372 18.3 4.12497 18.0937 4.12497H14.1094V2.51247C14.1094 2.37184 13.9453 2.29215 13.8352 2.37887L10.8445 4.74137C10.8243 4.75701 10.8079 4.77707 10.7966 4.80003C10.7854 4.82299 10.7795 4.84822 10.7795 4.87379C10.7795 4.89937 10.7854 4.9246 10.7966 4.94756C10.8079 4.97051 10.8243 4.99058 10.8445 5.00622L13.8328 7.36872C13.943 7.45543 14.107 7.37809 14.107 7.23512V5.62497H16.7789V16.5445C15.743 16.8961 14.9977 17.8781 14.9977 19.0312C14.9977 20.4797 16.1742 21.6562 17.6227 21.6562C19.0711 21.6562 20.2477 20.4797 20.2477 19.0312C20.25 17.8781 19.5047 16.8984 18.4687 16.5445ZM17.625 20.1562C17.3306 20.1502 17.0503 20.029 16.8442 19.8187C16.6382 19.6084 16.5227 19.3257 16.5227 19.0312C16.5227 18.7368 16.6382 18.454 16.8442 18.2437C17.0503 18.0334 17.3306 17.9122 17.625 17.9062C17.9194 17.9122 18.1997 18.0334 18.4058 18.2437C18.6118 18.454 18.7273 18.7368 18.7273 19.0312C18.7273 19.3257 18.6118 19.6084 18.4058 19.8187C18.1997 20.029 17.9194 20.1502 17.625 20.1562ZM9 4.96872C9 3.52028 7.82344 2.34372 6.375 2.34372C4.92656 2.34372 3.75 3.52028 3.75 4.96872C3.75 6.12184 4.49531 7.10153 5.53125 7.45543V16.5468C4.49531 16.8984 3.75 17.8804 3.75 19.0336C3.75 20.482 4.92656 21.6586 6.375 21.6586C7.82344 21.6586 9 20.482 9 19.0336C9 17.8804 8.25469 16.9007 7.21875 16.5468V7.45543C8.25469 7.10153 9 6.12184 9 4.96872ZM5.25 4.96872C5.25601 4.67432 5.37718 4.39402 5.5875 4.18794C5.79782 3.98187 6.08055 3.86645 6.375 3.86645C6.66945 3.86645 6.95218 3.98187 7.1625 4.18794C7.37282 4.39402 7.49399 4.67432 7.5 4.96872C7.49399 5.26311 7.37282 5.54342 7.1625 5.74949C6.95218 5.95556 6.66945 6.07099 6.375 6.07099C6.08055 6.07099 5.79782 5.95556 5.5875 5.74949C5.37718 5.54342 5.25601 5.26311 5.25 4.96872ZM7.5 19.0312C7.49399 19.3256 7.37282 19.6059 7.1625 19.812C6.95218 20.0181 6.66945 20.1335 6.375 20.1335C6.08055 20.1335 5.79782 20.0181 5.5875 19.812C5.37718 19.6059 5.25601 19.3256 5.25 19.0312C5.25601 18.7368 5.37718 18.4565 5.5875 18.2504C5.79782 18.0444 6.08055 17.9289 6.375 17.9289C6.66945 17.9289 6.95218 18.0444 7.1625 18.2504C7.37282 18.4565 7.49399 18.7368 7.5 19.0312Z" fill="#D6A218"/>
</svg>
