<svg width="16" height="17" viewBox="0 0 16 17" fill="none" xmlns="http://www.w3.org/2000/svg">
<path d="M3 15.7898L11.375 15.7898C11.4438 15.7898 11.5 15.7335 11.5 15.6648L11.5 14.7898C11.5 14.721 11.4438 14.6648 11.375 14.6648L3.625 14.6648L3.625 3.9148C3.625 3.84605 3.56875 3.7898 3.5 3.7898L2.625 3.7898C2.55625 3.7898 2.5 3.84605 2.5 3.9148L2.5 15.2898C2.5 15.5664 2.72344 15.7898 3 15.7898ZM5 13.7898L13 13.7898C13.2766 13.7898 13.5 13.5664 13.5 13.2898L13.5 4.99761C13.5 4.8648 13.4469 4.73823 13.3531 4.64448L10.6453 1.93667C10.6109 1.9023 10.5719 1.87417 10.5297 1.85074L10.5297 1.82105L10.4641 1.82105C10.4094 1.80073 10.3516 1.7898 10.2922 1.7898L5 1.7898C4.72344 1.7898 4.5 2.01323 4.5 2.2898L4.5 13.2898C4.5 13.5664 4.72344 13.7898 5 13.7898ZM10.5313 3.41167L11.8766 4.75855L10.5313 4.75855L10.5313 3.41167ZM5.625 2.9148L9.53125 2.9148L9.53125 5.13355C9.53125 5.47886 9.81094 5.75855 10.1563 5.75855L12.375 5.75855L12.375 12.6648L5.625 12.6648L5.625 2.9148Z" fill="#D6A218"/>
</svg>
