<svg width="32" height="31" viewBox="0 0 32 31" fill="none" xmlns="http://www.w3.org/2000/svg">
<rect x="0.376221" width="31.2476" height="30.0619" rx="4" fill="#D6A218"/>
<path d="M26.184 14.8666L16.5301 5.21971C16.4606 5.15006 16.3781 5.09481 16.2872 5.05711C16.1963 5.01941 16.0988 5 16.0004 5C15.902 5 15.8046 5.01941 15.7137 5.05711C15.6228 5.09481 15.5403 5.15006 15.4708 5.21971L5.81685 14.8666C5.5356 15.1478 5.37622 15.5299 5.37622 15.9283C5.37622 16.7556 6.04888 17.4283 6.87622 17.4283H7.89341V24.3119C7.89341 24.7267 8.22856 25.0619 8.64341 25.0619H14.5004V19.8119H17.1254V25.0619H23.3575C23.7723 25.0619 24.1075 24.7267 24.1075 24.3119V17.4283H25.1247C25.5231 17.4283 25.9051 17.2713 26.1864 16.9877C26.77 16.4017 26.77 15.4525 26.184 14.8666Z" fill="white"/>
</svg>
