<svg width="18" height="18" viewBox="0 0 18 18" fill="none" xmlns="http://www.w3.org/2000/svg">
<path fill-rule="evenodd" clip-rule="evenodd" d="M16.3125 1.125C16.1633 1.125 16.0202 1.18426 15.9148 1.28975C15.8093 1.39524 15.75 1.53832 15.75 1.6875V16.3125C15.75 16.4617 15.8093 16.6048 15.9148 16.7102C16.0202 16.8157 16.1633 16.875 16.3125 16.875C16.4617 16.875 16.6048 16.8157 16.7102 16.7102C16.8157 16.6048 16.875 16.4617 16.875 16.3125V1.6875C16.875 1.53832 16.8157 1.39524 16.7102 1.28975C16.6048 1.18426 16.4617 1.125 16.3125 1.125Z" fill="#F1F1F1"/>
<path d="M14.625 7.875C14.625 7.57663 14.5065 7.29048 14.2955 7.07951C14.0845 6.86853 13.7984 6.75 13.5 6.75H2.25C1.95163 6.75 1.66548 6.86853 1.4545 7.07951C1.24353 7.29048 1.125 7.57663 1.125 7.875V10.125C1.125 10.4234 1.24353 10.7095 1.4545 10.9205C1.66548 11.1315 1.95163 11.25 2.25 11.25H13.5C13.7984 11.25 14.0845 11.1315 14.2955 10.9205C14.5065 10.7095 14.625 10.4234 14.625 10.125V7.875Z" fill="#F1F1F1"/>
</svg>
