<svg width="22" height="23" viewBox="0 0 22 23" fill="none" xmlns="http://www.w3.org/2000/svg">
<rect y="0.56189" width="22" height="22" rx="3" fill="white"/>
<path d="M2.75 0.56189C2.02065 0.56189 1.32118 0.851621 0.805456 1.36735C0.289731 1.88307 0 2.58254 0 3.31189L0 19.8119C0 20.5412 0.289731 21.2407 0.805456 21.7564C1.32118 22.2722 2.02065 22.5619 2.75 22.5619H19.25C19.9793 22.5619 20.6788 22.2722 21.1945 21.7564C21.7103 21.2407 22 20.5412 22 19.8119V3.31189C22 2.58254 21.7103 1.88307 21.1945 1.36735C20.6788 0.851621 19.9793 0.56189 19.25 0.56189L2.75 0.56189ZM7.557 8.85726C7.51268 8.85787 7.4687 8.84942 7.42775 8.83244C7.38681 8.81546 7.34976 8.7903 7.31887 8.75851C7.28798 8.72672 7.2639 8.68896 7.2481 8.64755C7.23231 8.60613 7.22513 8.56193 7.227 8.51764C7.35625 6.18701 9.26338 5.37439 11.0069 5.37439C12.9264 5.37439 14.6809 6.37814 14.6809 8.45439C14.6809 9.93939 13.8077 10.6461 12.9704 11.2828C11.957 12.0514 11.5816 12.3388 11.5816 13.326V13.4704C11.5816 13.5616 11.5454 13.649 11.4809 13.7135C11.4165 13.7779 11.329 13.8141 11.2379 13.8141H10.1241C10.0339 13.8142 9.94729 13.7787 9.88298 13.7154C9.81867 13.6521 9.78182 13.5661 9.78037 13.4759L9.77488 13.1775C9.72263 11.9029 10.4555 11.1178 11.3809 10.4454C12.1921 9.83489 12.7077 9.43339 12.7077 8.56026C12.7077 7.42589 11.8442 6.95426 10.901 6.95426C9.79688 6.95426 9.17813 7.61151 9.05575 8.51351C9.031 8.70189 8.87975 8.85726 8.69 8.85726H7.55562H7.557ZM10.7539 17.7164C9.95088 17.7164 9.3665 17.1746 9.3665 16.4418C9.3665 15.6828 9.95088 15.1493 10.7552 15.1493C11.5926 15.1493 12.1688 15.6828 12.1688 16.4418C12.1688 17.1746 11.5913 17.7164 10.7539 17.7164Z" fill="#D6A218"/>
</svg>
