<svg width="28" height="28" viewBox="0 0 28 28" fill="none" xmlns="http://www.w3.org/2000/svg">
<g clip-path="url(#clip0_344_1015)">
<path d="M23.0007 6.81199H12.8157L11.0832 4.42699C10.9436 4.23589 10.7607 4.08055 10.5495 3.97366C10.3384 3.86677 10.1049 3.81137 9.86823 3.81199H5.00073C4.60291 3.81199 4.22138 3.97002 3.94007 4.25133C3.65877 4.53263 3.50073 4.91416 3.50073 5.31199V21.812C3.50073 22.2098 3.65877 22.5913 3.94007 22.8726C4.22138 23.154 4.60291 23.312 5.00073 23.312H23.0007C23.3986 23.312 23.7801 23.154 24.0614 22.8726C24.3427 22.5913 24.5007 22.2098 24.5007 21.812V8.31199C24.5007 7.91416 24.3427 7.53263 24.0614 7.25133C23.7801 6.97002 23.3986 6.81199 23.0007 6.81199ZM5.00073 5.31199H9.86823L11.9082 8.31199H5.00073V5.31199ZM16.9557 20.042C16.5413 20.046 16.1421 19.8857 15.8456 19.5962C15.549 19.3066 15.3792 18.9114 15.3732 18.497V18.272L11.1207 16.277L11.0607 16.337C10.8364 16.5481 10.5545 16.6881 10.2506 16.7393C9.94681 16.7904 9.63464 16.7505 9.35349 16.6244C9.07234 16.4984 8.8348 16.2919 8.67085 16.0311C8.50689 15.7702 8.42385 15.4666 8.4322 15.1586C8.44056 14.8506 8.53993 14.552 8.71778 14.3004C8.89563 14.0488 9.14401 13.8555 9.43157 13.7449C9.71914 13.6343 10.033 13.6113 10.3336 13.6789C10.6343 13.7464 10.9081 13.9015 11.1207 14.1245L15.3507 12.1295V11.957C15.354 11.5954 15.4829 11.2461 15.7152 10.969C15.9475 10.6918 16.2689 10.504 16.6244 10.4377C16.98 10.3713 17.3475 10.4305 17.6641 10.6052C17.9808 10.7799 18.2269 11.0592 18.3605 11.3952C18.494 11.7313 18.5066 12.1034 18.3961 12.4477C18.2856 12.7921 18.0589 13.0874 17.7548 13.2831C17.4507 13.4788 17.088 13.5627 16.7288 13.5206C16.3697 13.4784 16.0363 13.3128 15.7857 13.052L11.5632 15.062V15.4145L15.8532 17.4095C16.0341 17.2302 16.2562 17.0982 16.5001 17.025C16.744 16.9518 17.0021 16.9398 17.2517 16.9899C17.5014 17.04 17.7349 17.1507 17.9316 17.3123C18.1284 17.4739 18.2824 17.6815 18.38 17.9166C18.4777 18.1518 18.516 18.4073 18.4916 18.6608C18.4672 18.9143 18.3808 19.1578 18.2401 19.37C18.0994 19.5822 17.9086 19.7566 17.6847 19.8777C17.4607 19.9988 17.2104 20.0629 16.9557 20.0645V20.042Z" fill="#D6A218"/>
</g>
<defs>
<clipPath id="clip0_344_1015">
<rect width="27" height="27" fill="white" transform="translate(0.5 0.0618896)"/>
</clipPath>
</defs>
</svg>
