<svg width="28" height="29" viewBox="0 0 28 29" fill="none" xmlns="http://www.w3.org/2000/svg">
<path d="M18.6666 20.3952H15.1666V15.7286H12.8333V20.3952H9.33331V21.5619H2.33331V23.8952H9.33331V25.0619H18.6666V23.8952H25.6666V21.5619H18.6666V20.3952ZM17.5 15.7286H21C21.3094 15.7286 21.6061 15.6056 21.8249 15.3868C22.0437 15.1681 22.1666 14.8713 22.1666 14.5619V6.39522C22.1666 6.0858 22.0437 5.78906 21.8249 5.57027C21.6061 5.35147 21.3094 5.22856 21 5.22856H14L12.8333 4.06189H6.99998C6.69056 4.06189 6.39381 4.18481 6.17502 4.4036C5.95623 4.62239 5.83331 4.91914 5.83331 5.22856V14.5619C5.83331 14.8713 5.95623 15.1681 6.17502 15.3868C6.39381 15.6056 6.69056 15.7286 6.99998 15.7286H17.5Z" fill="#D6A218"/>
</svg>
