<svg width="16" height="16" viewBox="0 0 16 16" fill="none" xmlns="http://www.w3.org/2000/svg">
<path d="M10.674 12.9978L5.80198 7.99976L10.674 3.00176C10.7612 2.91247 10.81 2.79259 10.81 2.66776C10.81 2.54294 10.7612 2.42306 10.674 2.33376C10.6316 2.29053 10.5811 2.25618 10.5252 2.23273C10.4694 2.20928 10.4095 2.1972 10.349 2.1972C10.2884 2.1972 10.2285 2.20928 10.1727 2.23273C10.1169 2.25618 10.0663 2.29053 10.024 2.33376L4.83998 7.65076C4.74897 7.74414 4.69803 7.86937 4.69803 7.99976C4.69803 8.13016 4.74897 8.25539 4.83998 8.34876L10.023 13.6658C10.0654 13.7093 10.1161 13.7439 10.1721 13.7675C10.2281 13.7912 10.2882 13.8034 10.349 13.8034C10.4098 13.8034 10.4699 13.7912 10.5259 13.7675C10.5819 13.7439 10.6326 13.7093 10.675 13.6658C10.7622 13.5765 10.811 13.4566 10.811 13.3318C10.811 13.2069 10.7622 13.0871 10.675 12.9978L10.674 12.9978Z" fill="#222222"/>
</svg>
