<svg width="17" height="17" viewBox="0 0 17 17" fill="none" xmlns="http://www.w3.org/2000/svg">
<path d="M10.9831 13.6796L6.14579 8.64806L11.0522 3.68385C11.1401 3.59516 11.1897 3.47562 11.1906 3.3508C11.1914 3.22597 11.1434 3.10576 11.0568 3.01587C11.0148 2.97234 10.9644 2.93764 10.9088 2.9138C10.8532 2.88997 10.7933 2.87747 10.7328 2.87706C10.6723 2.87664 10.6122 2.8883 10.5563 2.91137C10.5003 2.93443 10.4495 2.96843 10.4068 3.01137L5.18622 8.29242C5.09457 8.38516 5.04277 8.51004 5.04186 8.64043C5.04096 8.77082 5.09103 8.8964 5.1814 8.9904L10.3275 14.3431C10.3696 14.3869 10.4201 14.4219 10.4759 14.4459C10.5317 14.4699 10.5918 14.4825 10.6526 14.4829C10.7133 14.4834 10.7736 14.4716 10.8297 14.4484C10.8859 14.4251 10.9368 14.3909 10.9795 14.3476C11.0674 14.2589 11.117 14.1394 11.1179 14.0146C11.1187 13.8897 11.0707 13.7695 10.9841 13.6796L10.9831 13.6796Z" fill="#CACACA"/>
</svg>
