<svg width="19" height="19" viewBox="0 0 19 19" fill="none" xmlns="http://www.w3.org/2000/svg">
<g clip-path="url(#clip0_1_3206)">
<path d="M5.84615 8.03846C5.84615 6.63021 6.34665 5.42558 7.34766 4.42458C8.34866 3.42358 9.55329 2.92308 10.9615 2.92308C12.3698 2.92308 13.5744 3.42358 14.5754 4.42458C15.5764 5.42558 16.0769 6.63021 16.0769 8.03846C16.0769 9.44671 15.5764 10.6513 14.5754 11.6523C13.5744 12.6533 12.3698 13.1538 10.9615 13.1538C9.55329 13.1538 8.34866 12.6533 7.34766 11.6523C6.34665 10.6513 5.84615 9.44671 5.84615 8.03846ZM0 17.5385C0 17.9343 0.144632 18.2768 0.433895 18.5661C0.723158 18.8554 1.06571 19 1.46154 19C1.8726 19 2.21515 18.8554 2.48918 18.5661L6.40565 14.6611C7.76823 15.605 9.28686 16.0769 10.9615 16.0769C12.0501 16.0769 13.091 15.8657 14.0844 15.4432C15.0778 15.0207 15.9342 14.4498 16.6535 13.7305C17.3729 13.0111 17.9438 12.1547 18.3663 11.1614C18.7888 10.168 19 9.127 19 8.03846C19 6.94992 18.7888 5.90895 18.3663 4.91557C17.9438 3.92218 17.3729 3.06581 16.6535 2.34645C15.9342 1.6271 15.0778 1.05619 14.0844 0.633714C13.091 0.211238 12.0501 0 10.9615 0C9.873 0 8.83203 0.211238 7.83864 0.633714C6.84525 1.05619 5.98888 1.6271 5.26953 2.34645C4.55018 3.06581 3.97927 3.92218 3.55679 4.91557C3.13432 5.90895 2.92308 6.94992 2.92308 8.03846C2.92308 9.71314 3.39503 11.2318 4.33894 12.5944L0.422476 16.5108C0.140825 16.7925 0 17.135 0 17.5385Z" fill="#F3F0E7"/>
</g>
<defs>
<clipPath id="clip0_1_3206">
<rect width="19" height="19" fill="white" transform="matrix(-1 0 0 1 19 0)"/>
</clipPath>
</defs>
</svg>
