<svg width="18" height="18" viewBox="0 0 18 18" fill="none" xmlns="http://www.w3.org/2000/svg">
<path d="M13.5 3.65625V4.5H14.0625C14.8084 4.5 15.5238 4.79632 16.0512 5.32376C16.5787 5.85121 16.875 6.56658 16.875 7.3125V11.5312C16.875 12.0534 16.6676 12.5542 16.2984 12.9234C15.9292 13.2926 15.4284 13.5 14.9062 13.5H14.0625V14.3438C14.0625 14.8659 13.8551 15.3667 13.4859 15.7359C13.1167 16.1051 12.6159 16.3125 12.0938 16.3125H5.90625C5.38411 16.3125 4.88335 16.1051 4.51413 15.7359C4.14492 15.3667 3.9375 14.8659 3.9375 14.3438V13.5H3.09375C2.57161 13.5 2.07085 13.2926 1.70163 12.9234C1.33242 12.5542 1.125 12.0534 1.125 11.5312V7.3125C1.125 6.56658 1.42132 5.85121 1.94876 5.32376C2.47621 4.79632 3.19158 4.5 3.9375 4.5H4.5V3.65625C4.5 3.13411 4.70742 2.63335 5.07663 2.26413C5.44585 1.89492 5.94661 1.6875 6.46875 1.6875H11.5312C12.0534 1.6875 12.5542 1.89492 12.9234 2.26413C13.2926 2.63335 13.5 3.13411 13.5 3.65625ZM5.625 3.65625V4.5H12.375V3.65625C12.375 3.43247 12.2861 3.21786 12.1279 3.05963C11.9696 2.90139 11.755 2.8125 11.5312 2.8125H6.46875C6.24497 2.8125 6.03036 2.90139 5.87213 3.05963C5.71389 3.21786 5.625 3.43247 5.625 3.65625ZM5.0625 14.3438C5.0625 14.5675 5.15139 14.7821 5.30963 14.9404C5.46786 15.0986 5.68247 15.1875 5.90625 15.1875H12.0938C12.3175 15.1875 12.5321 15.0986 12.6904 14.9404C12.8486 14.7821 12.9375 14.5675 12.9375 14.3438V10.9688C12.9375 10.745 12.8486 10.5304 12.6904 10.3721C12.5321 10.2139 12.3175 10.125 12.0938 10.125H5.90625C5.68247 10.125 5.46786 10.2139 5.30963 10.3721C5.15139 10.5304 5.0625 10.745 5.0625 10.9688V14.3438ZM14.0625 12.375H14.9062C15.13 12.375 15.3446 12.2861 15.5029 12.1279C15.6611 11.9696 15.75 11.755 15.75 11.5312V7.3125C15.75 6.86495 15.5722 6.43572 15.2557 6.11926C14.9393 5.80279 14.5101 5.625 14.0625 5.625H3.9375C3.48995 5.625 3.06072 5.80279 2.74426 6.11926C2.42779 6.43572 2.25 6.86495 2.25 7.3125V11.5312C2.25 11.755 2.33889 11.9696 2.49713 12.1279C2.65536 12.2861 2.86997 12.375 3.09375 12.375H3.9375V10.9688C3.9375 10.4466 4.14492 9.94585 4.51413 9.57663C4.88335 9.20742 5.38411 9 5.90625 9H12.0938C12.6159 9 13.1167 9.20742 13.4859 9.57663C13.8551 9.94585 14.0625 10.4466 14.0625 10.9688V12.375Z" fill="#10AB4E"/>
</svg>
