<svg width="19" height="19" viewBox="0 0 19 19" fill="none" xmlns="http://www.w3.org/2000/svg">
<path d="M13.8922 4.00051L13.8864 4.84424L14.4489 4.84813C15.1948 4.85329 15.9081 5.15454 16.4319 5.68562C16.9557 6.2167 17.247 6.9341 17.2419 7.68L17.2127 11.8986C17.2091 12.4208 16.9982 12.9201 16.6265 13.2867C16.2547 13.6534 15.7525 13.8574 15.2304 13.8537L14.3867 13.8479L14.3809 14.6916C14.3772 15.2138 14.1664 15.7131 13.7946 16.0797C13.4229 16.4464 12.9207 16.6504 12.3985 16.6467L6.21119 16.604C5.68906 16.6004 5.18975 16.3895 4.82309 16.0177C4.45644 15.646 4.25249 15.1438 4.2561 14.6217L4.26193 13.7779L3.4182 13.7721C2.89606 13.7685 2.39675 13.5576 2.0301 13.1859C1.66345 12.8141 1.45949 12.3119 1.4631 11.7898L1.49225 7.57115C1.49741 6.82525 1.79866 6.11195 2.32974 5.58816C2.86082 5.06437 3.57822 4.773 4.32412 4.77816L4.88661 4.78205L4.89244 3.93832C4.89605 3.41618 5.10693 2.91687 5.47868 2.55022C5.85044 2.18357 6.35262 1.97961 6.87475 1.98322L11.9371 2.0182C12.4593 2.02181 12.9586 2.23269 13.3252 2.60445C13.6919 2.9762 13.8958 3.47838 13.8922 4.00051ZM6.01741 3.94609L6.01158 4.78982L12.7614 4.83647L12.7673 3.99274C12.7688 3.76897 12.6814 3.55375 12.5243 3.39442C12.3671 3.2351 12.1531 3.14472 11.9294 3.14318L6.86698 3.10819C6.6432 3.10665 6.42798 3.19405 6.26866 3.35119C6.10934 3.50833 6.01896 3.72232 6.01741 3.94609ZM5.38107 14.6294C5.37952 14.8532 5.46693 15.0684 5.62407 15.2278C5.7812 15.3871 5.9952 15.4775 6.21897 15.479L12.4063 15.5218C12.6301 15.5233 12.8453 15.4359 13.0046 15.2788C13.164 15.1216 13.2543 14.9076 13.2559 14.6839L13.2792 11.309C13.2808 11.0852 13.1933 10.87 13.0362 10.7106C12.8791 10.5513 12.6651 10.4609 12.4413 10.4594L6.25395 10.4166C6.03018 10.4151 5.81496 10.5025 5.65564 10.6596C5.49632 10.8168 5.40594 11.0308 5.40439 11.2545L5.38107 14.6294ZM14.3945 12.7229L15.2382 12.7288C15.462 12.7303 15.6772 12.6429 15.8365 12.4858C15.9958 12.3286 16.0862 12.1146 16.0877 11.8909L16.1169 7.67223C16.12 7.22468 15.9452 6.79424 15.6309 6.4756C15.3166 6.15695 14.8886 5.9762 14.4411 5.9731L4.31635 5.90313C3.86881 5.90004 3.43837 6.07486 3.11972 6.38913C2.80107 6.7034 2.62032 7.13139 2.61723 7.57893L2.58807 11.7976C2.58653 12.0213 2.67394 12.2366 2.83107 12.3959C2.98821 12.5552 3.2022 12.6456 3.42597 12.6471L4.2697 12.653L4.27942 11.2468C4.28303 10.7246 4.49391 10.2253 4.86566 9.85866C5.23742 9.492 5.7396 9.28805 6.26173 9.29166L12.4491 9.33442C12.9712 9.33803 13.4705 9.5489 13.8372 9.92066C14.2038 10.2924 14.4078 10.7946 14.4042 11.3167L14.3945 12.7229Z" fill="#535353"/>
</svg>
