<svg width="35" height="35" viewBox="0 0 35 35" fill="none" xmlns="http://www.w3.org/2000/svg">
<g clip-path="url(#clip0_1_3204)">
<rect width="35" height="35" rx="8" fill="white"/>
<rect width="35" height="35" rx="6" fill="#D6A218"/>
<g clip-path="url(#clip1_1_3204)">
<path d="M13.8462 16.0385C13.8462 14.6302 14.3467 13.4256 15.3477 12.4246C16.3487 11.4236 17.5533 10.9231 18.9615 10.9231C20.3698 10.9231 21.5744 11.4236 22.5754 12.4246C23.5764 13.4256 24.0769 14.6302 24.0769 16.0385C24.0769 17.4467 23.5764 18.6513 22.5754 19.6523C21.5744 20.6533 20.3698 21.1538 18.9615 21.1538C17.5533 21.1538 16.3487 20.6533 15.3477 19.6523C14.3467 18.6513 13.8462 17.4467 13.8462 16.0385ZM8 25.5385C8 25.9343 8.14463 26.2768 8.43389 26.5661C8.72316 26.8554 9.06571 27 9.46154 27C9.8726 27 10.2151 26.8554 10.4892 26.5661L14.4056 22.6611C15.7682 23.605 17.2869 24.0769 18.9615 24.0769C20.0501 24.0769 21.091 23.8657 22.0844 23.4432C23.0778 23.0207 23.9342 22.4498 24.6535 21.7305C25.3729 21.0111 25.9438 20.1547 26.3663 19.1614C26.7888 18.168 27 17.127 27 16.0385C27 14.9499 26.7888 13.909 26.3663 12.9156C25.9438 11.9222 25.3729 11.0658 24.6535 10.3465C23.9342 9.6271 23.0778 9.05619 22.0844 8.63371C21.091 8.21124 20.0501 8 18.9615 8C17.873 8 16.832 8.21124 15.8386 8.63371C14.8453 9.05619 13.9889 9.6271 13.2695 10.3465C12.5502 11.0658 11.9793 11.9222 11.5568 12.9156C11.1343 13.909 10.9231 14.9499 10.9231 16.0385C10.9231 17.7131 11.395 19.2318 12.3389 20.5944L8.42248 24.5108C8.14083 24.7925 8 25.135 8 25.5385Z" fill="#F3F0E7"/>
</g>
</g>
<rect x="0.5" y="0.5" width="34" height="34" rx="7.5" stroke="#EEECEC"/>
<defs>
<clipPath id="clip0_1_3204">
<rect width="35" height="35" rx="8" fill="white"/>
</clipPath>
<clipPath id="clip1_1_3204">
<rect width="19" height="19" fill="white" transform="matrix(-1 0 0 1 27 8)"/>
</clipPath>
</defs>
</svg>
