<svg width="15" height="16" viewBox="0 0 15 16" fill="none" xmlns="http://www.w3.org/2000/svg">
<path d="M12.1851 5.05512L7.49948 9.62262L2.81385 5.05512C2.73013 4.97335 2.61775 4.92757 2.50073 4.92757C2.3837 4.92757 2.27132 4.97335 2.1876 5.05512C2.14707 5.09484 2.11486 5.14224 2.09288 5.19456C2.07089 5.24688 2.05957 5.30306 2.05957 5.35981C2.05957 5.41656 2.07089 5.47274 2.09288 5.52506C2.11486 5.57738 2.14707 5.62478 2.1876 5.6645L7.17229 10.5245C7.25983 10.6098 7.37723 10.6576 7.49948 10.6576C7.62172 10.6576 7.73913 10.6098 7.82666 10.5245L12.8114 5.66544C12.8522 5.62569 12.8846 5.57817 12.9068 5.52568C12.9289 5.47318 12.9403 5.41679 12.9403 5.35981C12.9403 5.30283 12.9289 5.24644 12.9068 5.19394C12.8846 5.14145 12.8522 5.09393 12.8114 5.05419C12.7276 4.97241 12.6153 4.92664 12.4982 4.92664C12.3812 4.92664 12.2688 4.97241 12.1851 5.05419V5.05512Z" fill="#F6F9F8"/>
</svg>
