<svg width="35" height="35" viewBox="0 0 35 35" fill="none" xmlns="http://www.w3.org/2000/svg">
<rect width="35" height="35" rx="6" fill="#96C7FE" fill-opacity="0.3"/>
<path d="M17.4999 27.2007C18.7023 27.2007 19.7016 26.334 19.909 25.1915H15.0908C15.2982 26.334 16.2975 27.2007 17.4999 27.2007Z" fill="#3D5653"/>
<path d="M25.5323 21.1561C24.6808 20.3046 23.6232 19.8955 23.6232 15.7577C23.6232 12.7192 21.41 10.1982 18.5078 9.71744H18.3493C18.5343 9.51377 18.647 9.24331 18.647 8.94648C18.647 8.31291 18.1335 7.79932 17.4999 7.79932C16.8663 7.79932 16.3527 8.31291 16.3527 8.94648C16.3527 9.24327 16.4655 9.51377 16.6504 9.71744H16.4919C13.5898 10.1982 11.3766 12.7192 11.3766 15.7577C11.3766 19.8955 10.3186 20.3046 9.46713 21.1561C8.3133 22.31 9.13103 24.2921 10.7661 24.2921H24.2333C25.8651 24.2921 26.6884 22.3123 25.5323 21.1561Z" fill="#3D5653"/>
<circle cx="24.1817" cy="8.90909" r="5.09091" fill="#81DA6B"/>
</svg>
