<svg width="22" height="21" viewBox="0 0 22 21" fill="none" xmlns="http://www.w3.org/2000/svg">
<path fill-rule="evenodd" clip-rule="evenodd" d="M12.8049 4.75H6.69513C5.32754 4.74998 4.22521 4.74996 3.35825 4.86652C2.45814 4.98754 1.70027 5.24643 1.09835 5.84835C0.496431 6.45027 0.23754 7.20814 0.11652 8.10825C-3.95477e-05 8.97521 -1.9476e-05 10.0775 5.23953e-07 11.4451V13.5549C-1.9476e-05 14.9225 -3.95477e-05 16.0248 0.11652 16.8918C0.23754 17.7919 0.496431 18.5497 1.09835 19.1517C1.70027 19.7536 2.45814 20.0125 3.35825 20.1335C4.22521 20.25 5.32753 20.25 6.69511 20.25H12.8049C14.1725 20.25 15.2748 20.25 16.1418 20.1335C17.0419 20.0125 17.7997 19.7536 18.4017 19.1517C19.0036 18.5497 19.2625 17.7919 19.3835 16.8918C19.5 16.0248 19.5 14.9225 19.5 13.5549V11.4451C19.5 10.0775 19.5 8.97522 19.3835 8.10825C19.2625 7.20814 19.0036 6.45027 18.4017 5.84835C17.7997 5.24643 17.0419 4.98754 16.1418 4.86652C15.2748 4.74996 14.1725 4.74998 12.8049 4.75ZM4.08541 8.82918C3.71493 8.64394 3.26442 8.79411 3.07918 9.16459C2.89394 9.53507 3.04411 9.98558 3.41459 10.1708L8.5202 12.7236C9.2944 13.1107 10.2056 13.1107 10.9798 12.7236L16.0854 10.1708C16.4559 9.98558 16.6061 9.53507 16.4208 9.16459C16.2356 8.79411 15.7851 8.64394 15.4146 8.82918L10.309 11.382C9.9571 11.5579 9.5429 11.5579 9.191 11.382L4.08541 8.82918Z" fill="#3D5653"/>
<circle cx="18" cy="4.75" r="4" fill="#81DA6B"/>
</svg>
