<svg width="18" height="18" viewBox="0 0 18 18" fill="none" xmlns="http://www.w3.org/2000/svg">
<g clip-path="url(#clip0_1_2939)">
<path d="M6.16422 2.85285L10.1027 5.127C10.2119 5.18944 10.3508 5.15176 10.4138 5.04357L10.5274 4.84657C10.5903 4.73838 10.5527 4.59897 10.4445 4.53599L6.50547 2.26184C6.39674 2.19886 6.25733 2.23654 6.1949 2.34473L6.08132 2.54173C6.01835 2.65046 6.05549 2.78987 6.16422 2.85285Z" fill="#D6A218"/>
<path d="M2.7532 8.76159L6.69219 11.0363C6.80092 11.0987 6.94033 11.0616 7.00277 10.9534L7.11634 10.7569C7.17932 10.6487 7.14218 10.5088 7.03345 10.4464L3.09445 8.1722C2.98572 8.10922 2.84631 8.1469 2.78388 8.25509L2.6703 8.45209C2.60679 8.55921 2.64393 8.69862 2.7532 8.76159Z" fill="#D6A218"/>
<path d="M8.32669 7.20427L8.06503 7.65742L8.06558 7.65771L7.94511 7.86624L7.02132 9.4653L3.9481 7.69144L6.17731 3.83061L9.25038 5.60457L8.32669 7.20427ZM15.8777 12.3202L10.8237 9.08724L16.1504 11.8481L15.8777 12.3202ZM3.71204 7.55519C3.71218 7.55527 3.71232 7.55535 3.71245 7.55543L3.71207 7.55521L3.71204 7.55519Z" stroke="#D6A218"/>
<path d="M17.8865 12.1157L17.493 11.8885C17.3853 11.8255 17.2448 11.8632 17.1824 11.9714L16.4994 13.1529C16.4375 13.2611 16.4746 13.401 16.5828 13.4629L16.9763 13.6901C17.0844 13.7531 17.2239 13.7159 17.2868 13.6072L17.9693 12.4257C18.0323 12.3175 17.9952 12.1776 17.8865 12.1157Z" fill="#D6A218"/>
<path d="M9.37544 13.5177H8.90123C8.96098 13.451 9.00081 13.3649 9.00081 13.268V12.8933C9.00081 12.6872 8.83233 12.5182 8.62618 12.5182H1.12497C0.918274 12.5182 0.749798 12.6872 0.749798 12.8933V13.268C0.749798 13.3649 0.789629 13.451 0.849915 13.5177H0.375168C0.167938 13.5177 0 13.6873 0 13.8934V15.3936C0 15.5997 0.168476 15.7687 0.375168 15.7687H9.37651C9.58374 15.7687 9.75114 15.5997 9.75114 15.3936V13.8924C9.75114 13.6873 9.58267 13.5177 9.37544 13.5177ZM8.84202 15.2515H0.943034C0.726115 15.2515 0.548488 15.0738 0.548488 14.8575V14.4624C0.549027 14.246 0.726115 14.0673 0.943034 14.0684H8.84202C9.06001 14.0684 9.23764 14.246 9.2371 14.4618L9.23764 14.8575C9.2371 15.0738 9.06001 15.2515 8.84202 15.2515Z" fill="#D6A218"/>
</g>
<defs>
<clipPath id="clip0_1_2939">
<rect width="18" height="18" fill="white"/>
</clipPath>
</defs>
</svg>
