<svg width="19" height="20" viewBox="0 0 19 20" fill="none" xmlns="http://www.w3.org/2000/svg">
<g clip-path="url(#clip0_1_3071)">
<path d="M11.1964 5.58929C11.1964 5.81206 11.1525 6.03266 11.0673 6.23848C10.982 6.4443 10.8571 6.63131 10.6996 6.78884C10.542 6.94637 10.355 7.07133 10.1492 7.15658C9.94337 7.24184 9.72278 7.28571 9.5 7.28571C9.27722 7.28571 9.05662 7.24184 8.8508 7.15658C8.64498 7.07133 8.45797 6.94637 8.30044 6.78884C8.14292 6.63131 8.01796 6.4443 7.9327 6.23848C7.84745 6.03266 7.80357 5.81206 7.80357 5.58929C7.80357 5.13936 7.9823 4.70787 8.30044 4.38973C8.61859 4.07159 9.05008 3.89286 9.5 3.89286C9.94992 3.89286 10.3814 4.07159 10.6996 4.38973C11.0177 4.70787 11.1964 5.13936 11.1964 5.58929ZM8.14286 8.64286H10.8571V15.4286H8.14286V8.64286ZM9.5 0.5C6.98044 0.5 4.56408 1.50089 2.78249 3.28249C1.00089 5.06408 0 7.48044 0 10C-5.56945e-08 11.2476 0.245725 12.4829 0.723144 13.6355C1.20056 14.7881 1.90033 15.8354 2.78249 16.7175C3.66464 17.5997 4.71191 18.2994 5.86451 18.7769C7.0171 19.2543 8.25244 19.5 9.5 19.5C10.7476 19.5 11.9829 19.2543 13.1355 18.7769C14.2881 18.2994 15.3354 17.5997 16.2175 16.7175C17.0997 15.8354 17.7994 14.7881 18.2769 13.6355C18.7543 12.4829 19 11.2476 19 10C19 7.48044 17.9991 5.06408 16.2175 3.28249C14.4359 1.50089 12.0196 0.5 9.5 0.5ZM9.5 1.85714C11.6596 1.85714 13.7308 2.71505 15.2579 4.24213C16.785 5.76921 17.6429 7.84038 17.6429 10C17.6429 11.0693 17.4322 12.1282 17.023 13.1161C16.6138 14.1041 16.014 15.0017 15.2579 15.7579C14.5017 16.514 13.6041 17.1138 12.6161 17.523C11.6282 17.9322 10.5693 18.1429 9.5 18.1429C8.43066 18.1429 7.3718 17.9322 6.38386 17.523C5.39593 17.1138 4.49826 16.514 3.74213 15.7579C2.986 15.0017 2.3862 14.1041 1.97698 13.1161C1.56776 12.1282 1.35714 11.0693 1.35714 10C1.35714 7.84038 2.21505 5.76921 3.74213 4.24213C5.26921 2.71505 7.34038 1.85714 9.5 1.85714Z" fill="#D6A218"/>
</g>
<defs>
<clipPath id="clip0_1_3071">
<rect width="19" height="19" fill="white" transform="translate(0 0.5)"/>
</clipPath>
</defs>
</svg>
