<svg width="13" height="7" viewBox="0 0 13 7" fill="none" xmlns="http://www.w3.org/2000/svg">
<path d="M11.3721 0.514913L6.34057 5.35226L1.37635 0.445833C1.28766 0.357995 1.16813 0.308337 1.0433 0.307475C0.918478 0.306612 0.798268 0.354613 0.70837 0.441216C0.66484 0.483281 0.630142 0.533608 0.606307 0.58925C0.582472 0.644893 0.569979 0.704733 0.569561 0.765264C0.569142 0.825796 0.580807 0.885802 0.60387 0.941769C0.626934 0.997736 0.660934 1.04854 0.703878 1.0912L5.98493 6.31182C6.07767 6.40348 6.20255 6.45528 6.33294 6.45618C6.46333 6.45708 6.58891 6.40701 6.68291 6.31665L12.0356 1.17051C12.0794 1.12842 12.1144 1.07797 12.1384 1.02214C12.1624 0.966317 12.175 0.906245 12.1754 0.845473C12.1759 0.7847 12.1641 0.724459 12.1409 0.668306C12.1176 0.612153 12.0834 0.561225 12.0401 0.518529C11.9514 0.430692 11.8319 0.381034 11.7071 0.380172C11.5822 0.379309 11.462 0.42731 11.3721 0.513913L11.3721 0.514913Z" fill="#535353"/>
</svg>
